<svg xmlns="http://www.w3.org/2000/svg" viewBox="0 0 490 104"><path d="M166.45 62.82h45.41V41.21h-45.41V23.98h51.54V1.64h-80.16v102.21h82.06V81.51h-53.44V62.82Zm306.61-33.17c10.22-.01 16.94-6.43 16.94-15.2S483.28.15 473.06.15s-16.94 6.42-16.94 14.75 6.72 14.75 16.94 14.75ZM94.76 1.64 59.72 60.63 23.8 1.64H0v102.21h26.72V51.14l26.14 42.64h12.85l26.28-44.1.29 54.17h26.57l-.29-102.21h-23.8Zm364.43 34.48v67.73h27.74V36.12s-6.67 2.28-13.47 2.28-14.27-2.28-14.27-2.28Zm-62.35 32.09L369.11 1.64h-31.25l43.66 102.21h28.47l43.8-102.21h-28.62l-28.33 66.57ZM282.82 1.64h-48.33v102.21h48.33c33.87 0 57.09-19.71 57.09-51.1S316.69 1.64 282.82 1.64Zm-1.17 79.13H263.4V24.71h18.25c17.38 0 29.06 10.37 29.06 28.03s-11.68 28.03-29.06 28.03Z" style="fill:#fff"/></svg>