<svg xmlns="http://www.w3.org/2000/svg" xml:space="preserve" width="800" height="800" viewBox="0 0 464.976 464.976"><path d="M436.488 312c-1.348 0-2.667.12-3.953.339l-34.892-64.801c3.932-4.203 6.346-9.842 6.346-16.038s-2.414-11.835-6.346-16.038l34.893-64.801c1.286.219 2.605.339 3.953.339 12.958 0 23.5-10.542 23.5-23.5s-10.542-23.5-23.5-23.5-23.5 10.542-23.5 23.5c0 6.196 2.414 11.835 6.346 16.038l-34.893 64.801a23.517 23.517 0 0 0-3.953-.339c-10.336 0-19.128 6.71-22.266 16h-75.469c-3.138-9.29-11.93-16-22.266-16-1.348 0-2.667.12-3.953.339l-34.893-64.801c3.932-4.203 6.346-9.842 6.346-16.038s-2.414-11.835-6.346-16.038l34.893-64.801c1.286.219 2.605.339 3.953.339 12.958 0 23.5-10.542 23.5-23.5S273.446 0 260.488 0s-23.5 10.542-23.5 23.5c0 6.196 2.414 11.835 6.346 16.038l-34.893 64.801a23.517 23.517 0 0 0-3.953-.339c-10.336 0-19.128 6.71-22.266 16h-75.469c-3.138-9.29-11.93-16-22.266-16-12.958 0-23.5 10.542-23.5 23.5 0 6.196 2.414 11.835 6.346 16.038L32.44 208.339a23.506 23.506 0 0 0-3.952-.339c-12.958 0-23.5 10.542-23.5 23.5S15.53 255 28.488 255c1.348 0 2.667-.12 3.953-.339l34.893 64.801c-3.932 4.203-6.346 9.842-6.346 16.038 0 6.548 2.695 12.477 7.031 16.742l-35.577 66.072a23.517 23.517 0 0 0-3.953-.339c-12.958 0-23.5 10.542-23.5 23.5s10.542 23.5 23.5 23.5 23.5-10.542 23.5-23.5c0-6.196-2.414-11.835-6.346-16.038l35.879-66.631c.973.123 1.962.194 2.968.194 10.336 0 19.128-6.71 22.266-16h75.469c3.138 9.29 11.93 16 22.266 16 1.348 0 2.667-.12 3.953-.339l34.893 64.801c-3.932 4.203-6.346 9.842-6.346 16.038 0 12.958 10.542 23.5 23.5 23.5 10.336 0 19.128-6.71 22.266-16h75.469c3.138 9.29 11.93 16 22.266 16 12.958 0 23.5-10.542 23.5-23.5 0-6.196-2.414-11.835-6.346-16.038l34.893-64.801c1.286.219 2.605.339 3.953.339 12.958 0 23.5-10.542 23.5-23.5S449.446 312 436.488 312zm-408 137.976c-4.687 0-8.5-3.813-8.5-8.5s3.813-8.5 8.5-8.5 8.5 3.813 8.5 8.5-3.814 8.5-8.5 8.5zm352-33.976c-10.336 0-19.128 6.71-22.266 16h-75.469c-3.138-9.29-11.93-16-22.266-16-1.348 0-2.667.12-3.953.339l-34.893-64.801c3.932-4.203 6.346-9.842 6.346-16.038s-2.414-11.835-6.346-16.038l34.893-64.801c1.286.219 2.605.339 3.953.339 10.336 0 19.128-6.71 22.266-16h75.469c3.138 9.29 11.93 16 22.266 16 1.348 0 2.667-.12 3.953-.339l34.892 64.801c-3.932 4.203-6.346 9.842-6.346 16.038s2.414 11.835 6.346 16.038l-34.893 64.801a23.506 23.506 0 0 0-3.952-.339zm-198.266-88h-75.469c-3.138-9.29-11.93-16-22.266-16-1.348 0-2.667.12-3.953.339l-34.893-64.801c3.932-4.203 6.346-9.842 6.346-16.038s-2.414-11.835-6.346-16.038l34.893-64.801c1.287.219 2.606.339 3.954.339 10.336 0 19.128-6.71 22.266-16h75.469c3.138 9.29 11.93 16 22.266 16 1.348 0 2.667-.12 3.953-.339l34.893 64.801c-3.932 4.203-6.346 9.842-6.346 16.038s2.414 11.835 6.346 16.038l-34.893 64.801a23.517 23.517 0 0 0-3.953-.339c-10.337 0-19.129 6.71-22.267 16zm254.266-209c4.687 0 8.5 3.813 8.5 8.5s-3.813 8.5-8.5 8.5-8.5-3.813-8.5-8.5 3.813-8.5 8.5-8.5zm-56 104c4.687 0 8.5 3.813 8.5 8.5s-3.813 8.5-8.5 8.5-8.5-3.813-8.5-8.5 3.813-8.5 8.5-8.5zm-111.5 8.5c0 4.687-3.813 8.5-8.5 8.5s-8.5-3.813-8.5-8.5 3.813-8.5 8.5-8.5 8.5 3.813 8.5 8.5zm-8.5-216.5c4.687 0 8.5 3.813 8.5 8.5s-3.813 8.5-8.5 8.5-8.5-3.813-8.5-8.5 3.813-8.5 8.5-8.5zm-56 104c4.687 0 8.5 3.813 8.5 8.5s-3.813 8.5-8.5 8.5-8.5-3.813-8.5-8.5 3.813-8.5 8.5-8.5zm-120 0c4.687 0 8.5 3.813 8.5 8.5s-3.813 8.5-8.5 8.5-8.5-3.813-8.5-8.5 3.813-8.5 8.5-8.5zm-64.5 112.5c0-4.687 3.813-8.5 8.5-8.5s8.5 3.813 8.5 8.5-3.813 8.5-8.5 8.5-8.5-3.813-8.5-8.5zm64.5 112.5c-4.687 0-8.5-3.813-8.5-8.5s3.813-8.5 8.5-8.5 8.5 3.813 8.5 8.5-3.814 8.5-8.5 8.5zm111.5-8.5c0-4.687 3.813-8.5 8.5-8.5s8.5 3.813 8.5 8.5-3.813 8.5-8.5 8.5-8.5-3.813-8.5-8.5zm64.5 112.5c-4.687 0-8.5-3.813-8.5-8.5s3.813-8.5 8.5-8.5 8.5 3.813 8.5 8.5-3.814 8.5-8.5 8.5zm120 0c-4.687 0-8.5-3.813-8.5-8.5s3.813-8.5 8.5-8.5 8.5 3.813 8.5 8.5-3.814 8.5-8.5 8.5zm56-104c-4.687 0-8.5-3.813-8.5-8.5s3.813-8.5 8.5-8.5 8.5 3.813 8.5 8.5-3.814 8.5-8.5 8.5z"/></svg>